<svg xmlns="http://www.w3.org/2000/svg" viewBox="0 0 512 512">
  <defs>
    <linearGradient id="grad1" x1="0%" y1="0%" x2="100%" y2="100%">
      <stop offset="0%" style="stop-color:#3b82f6;stop-opacity:1" />
      <stop offset="100%" style="stop-color:#6366f1;stop-opacity:1" />
    </linearGradient>
  </defs>
  
  <!-- Background Circle -->
  <circle cx="256" cy="256" r="256" fill="url(#grad1)"/>
  
  <!-- Book Icon -->
  <path d="M160 96h192c17.7 0 32 14.3 32 32v256c0 17.7-14.3 32-32 32H160c-17.7 0-32-14.3-32-32V128c0-17.7 14.3-32 32-32z" fill="white" opacity="0.9"/>
  
  <!-- Pages -->
  <rect x="180" y="140" width="152" height="8" rx="4" fill="#3b82f6"/>
  <rect x="180" y="170" width="120" height="6" rx="3" fill="#3b82f6" opacity="0.6"/>
  <rect x="180" y="190" width="140" height="6" rx="3" fill="#3b82f6" opacity="0.6"/>
  <rect x="180" y="210" width="110" height="6" rx="3" fill="#3b82f6" opacity="0.6"/>
  
  <!-- Graduation Cap -->
  <path d="M256 280l-80-30v40l80 30 80-30v-40l-80 30z" fill="#fbbf24"/>
  <path d="M256 250l100-37.5-100-37.5-100 37.5L256 250z" fill="#fbbf24"/>
  <circle cx="356" cy="230" r="8" fill="#fbbf24"/>
  <rect x="352" y="238" width="8" height="40" rx="4" fill="#fbbf24"/>
</svg>
